<svg width="15" height="15" viewBox="0 0 15 15" fill="none" xmlns="http://www.w3.org/2000/svg">
  <g>
    <path d="M7.64899 2.24644C9.40853 2.24644 9.61693 2.25317 10.3119 2.28487C10.9544 2.31419 11.3033 2.42152 11.5355 2.51176C11.8217 2.6174 12.0806 2.78584 12.2932 3.00471C12.512 3.21727 12.6805 3.47618 12.7861 3.7624C12.8764 3.9946 12.9837 4.34352 13.013 4.98601C13.0447 5.6809 13.0514 5.8893 13.0514 7.64889C13.0514 9.40848 13.0447 9.61683 13.013 10.3118C12.9837 10.9543 12.8763 11.3032 12.7861 11.5354C12.6765 11.8196 12.5086 12.0777 12.2932 12.2931C12.0778 12.5085 11.8197 12.6764 11.5355 12.786C11.3033 12.8763 10.9544 12.9836 10.3119 13.0129C9.61712 13.0446 9.40872 13.0513 7.64899 13.0513C5.88927 13.0513 5.68095 13.0446 4.98612 13.0129C4.34363 12.9836 3.99473 12.8762 3.7625 12.786C3.47628 12.6804 3.21737 12.5119 3.00481 12.2931C2.78595 12.0805 2.61751 11.8216 2.51187 11.5354C2.42162 11.3032 2.31427 10.9543 2.28497 10.3118C2.25327 9.61691 2.24655 9.40848 2.24655 7.64889C2.24655 5.8893 2.25327 5.68095 2.28497 4.98601C2.3143 4.34352 2.42162 3.99463 2.51187 3.7624C2.61752 3.47616 2.78598 3.21724 3.00486 3.00468C3.21743 2.78582 3.47633 2.61738 3.76256 2.51174C3.99476 2.42149 4.34368 2.31414 4.98617 2.28484C5.68106 2.25314 5.88946 2.24642 7.64905 2.24642L7.64899 2.24644ZM7.64905 1.05908C5.85937 1.05908 5.63489 1.06667 4.93213 1.09874C4.2307 1.13075 3.7517 1.24214 3.33255 1.40505C2.89285 1.57051 2.49453 1.8299 2.16538 2.16512C1.83008 2.49425 1.57063 2.89257 1.4051 3.33228C1.24232 3.75147 1.13094 4.23047 1.09905 4.93189C1.06685 5.63465 1.05927 5.85914 1.05927 7.64881C1.05927 9.43849 1.06685 9.66297 1.09905 10.3657C1.13107 11.0672 1.24245 11.5462 1.40536 11.9653C1.57083 12.405 1.83021 12.8033 2.16543 13.1325C2.49458 13.4677 2.8929 13.7271 3.3326 13.8926C3.75178 14.0555 4.23078 14.1668 4.93218 14.1989C5.63504 14.2309 5.85945 14.2385 7.6491 14.2385C9.43875 14.2385 9.66326 14.2309 10.366 14.1989C11.0674 14.1668 11.5464 14.0555 11.9656 13.8926C12.4033 13.7232 12.8009 13.4644 13.1328 13.1325C13.4646 12.8006 13.7235 12.4031 13.8928 11.9653C14.0557 11.5461 14.1671 11.0671 14.1991 10.3657C14.2312 9.66287 14.2388 9.43846 14.2388 7.64881C14.2388 5.85917 14.2312 5.63465 14.1991 4.93189C14.1671 4.23047 14.0557 3.75147 13.8928 3.33231C13.7274 2.89261 13.468 2.4943 13.1328 2.16514C12.8036 1.82986 12.4053 1.57042 11.9655 1.40492C11.5463 1.24214 11.0673 1.13075 10.3659 1.09887C9.66315 1.06667 9.43867 1.05908 7.64899 1.05908H7.64905Z" fill="#13151A"/>
    <path d="M7.649 4.26465C6.97972 4.26465 6.32547 4.46311 5.76899 4.83494C5.21251 5.20677 4.77878 5.73527 4.52266 6.3536C4.26654 6.97193 4.19953 7.65232 4.3301 8.30874C4.46067 8.96515 4.78295 9.56811 5.2562 10.0414C5.72945 10.5146 6.33241 10.8369 6.98883 10.9675C7.64524 11.098 8.32564 11.031 8.94397 10.7749C9.5623 10.5188 10.0908 10.0851 10.4626 9.52857C10.8345 8.97209 11.0329 8.31784 11.0329 7.64857C11.0329 6.7511 10.6764 5.89038 10.0418 5.25577C9.40718 4.62117 8.54647 4.26465 7.649 4.26465V4.26465ZM7.649 9.84512C7.21456 9.84512 6.78988 9.71629 6.42866 9.47492C6.06744 9.23356 5.78591 8.8905 5.61966 8.48913C5.45341 8.08776 5.40992 7.64611 5.49467 7.22002C5.57943 6.79393 5.78863 6.40255 6.09583 6.09536C6.40303 5.78816 6.79442 5.57896 7.22051 5.49421C7.6466 5.40946 8.08825 5.45296 8.48962 5.61921C8.89098 5.78547 9.23404 6.067 9.4754 6.42823C9.71676 6.78945 9.84558 7.21413 9.84558 7.64857C9.84557 8.23113 9.61415 8.78983 9.20221 9.20177C8.79027 9.6137 8.23156 9.84512 7.649 9.84512Z" fill="#13151A"/>
    <path d="M11.1666 4.92185C11.6033 4.92185 11.9574 4.56781 11.9574 4.13109C11.9574 3.69437 11.6033 3.34033 11.1666 3.34033C10.7299 3.34033 10.3759 3.69437 10.3759 4.13109C10.3759 4.56781 10.7299 4.92185 11.1666 4.92185Z" fill="#13151A"/>
  </g>
</svg>
