<svg width="15" height="15" viewBox="0 0 15 15" fill="none" xmlns="http://www.w3.org/2000/svg">
  <g>
    <path d="M4.14948 13.604C4.14948 13.8481 3.95031 14.0459 3.70459 14.0459H1.81083C1.56511 14.0459 1.36594 13.8481 1.36594 13.604V5.71871C1.36594 5.47465 1.56511 5.27681 1.81083 5.27681H3.70459C3.95031 5.27681 4.14948 5.47465 4.14948 5.71871V13.604ZM2.75771 4.5335C1.76411 4.5335 0.958618 3.73342 0.958618 2.74649C0.958618 1.75956 1.76411 0.959473 2.75771 0.959473C3.75131 0.959473 4.5568 1.75956 4.5568 2.74649C4.5568 3.73342 3.75135 4.5335 2.75771 4.5335ZM14.0462 13.6396C14.0462 13.864 13.8631 14.0459 13.6372 14.0459H11.605C11.3792 14.0459 11.196 13.864 11.196 13.6396V9.94096C11.196 9.3892 11.3589 7.52313 9.74433 7.52313C8.49192 7.52313 8.23789 8.8004 8.18688 9.3736V13.6396C8.18688 13.864 8.00377 14.0459 7.77783 14.0459H5.81239C5.5865 14.0459 5.40335 13.864 5.40335 13.6396V5.68312C5.40335 5.45874 5.5865 5.27681 5.81239 5.27681H7.77783C8.00372 5.27681 8.18688 5.45874 8.18688 5.68312V6.37106C8.65127 5.67881 9.34143 5.1445 10.8109 5.1445C14.0649 5.1445 14.0462 8.16414 14.0462 9.82328V13.6396Z" fill="#13151A"/>
  </g>
</svg>
